G04 #@! TF.GenerationSoftware,KiCad,Pcbnew,(5.1.5)-3*
G04 #@! TF.CreationDate,2020-09-11T10:56:42+02:00*
G04 #@! TF.ProjectId,mmu_16v8,6d6d755f-3136-4763-982e-6b696361645f,rev?*
G04 #@! TF.SameCoordinates,Original*
G04 #@! TF.FileFunction,Copper,L2,Bot*
G04 #@! TF.FilePolarity,Positive*
%FSLAX46Y46*%
G04 Gerber Fmt 4.6, Leading zero omitted, Abs format (unit mm)*
G04 Created by KiCad (PCBNEW (5.1.5)-3) date 2020-09-11 10:56:42*
%MOMM*%
%LPD*%
G04 APERTURE LIST*
%ADD10C,0.050000*%
%ADD11O,1.700000X1.700000*%
%ADD12R,1.700000X1.700000*%
%ADD13O,1.600000X1.600000*%
%ADD14R,1.600000X1.600000*%
%ADD15C,0.800000*%
%ADD16C,0.254000*%
G04 APERTURE END LIST*
D10*
X140208000Y-69088000D02*
X140208000Y-41910000D01*
X154940000Y-69088000D02*
X140208000Y-69088000D01*
X154940000Y-41910000D02*
X154940000Y-69088000D01*
X140208000Y-41910000D02*
X154940000Y-41910000D01*
D11*
X151638000Y-64770000D03*
X151638000Y-62230000D03*
X151638000Y-59690000D03*
X151638000Y-57150000D03*
X151638000Y-54610000D03*
X151638000Y-52070000D03*
X151638000Y-49530000D03*
D12*
X151638000Y-46990000D03*
D11*
X144018000Y-64770000D03*
X144018000Y-62230000D03*
X144018000Y-59690000D03*
X144018000Y-57150000D03*
X144018000Y-54610000D03*
X144018000Y-52070000D03*
X144018000Y-49530000D03*
D12*
X144018000Y-46990000D03*
D13*
X149161500Y-44450000D03*
X141541500Y-67310000D03*
X149161500Y-46990000D03*
X141541500Y-64770000D03*
X149161500Y-49530000D03*
X141541500Y-62230000D03*
X149161500Y-52070000D03*
X141541500Y-59690000D03*
X149161500Y-54610000D03*
X141541500Y-57150000D03*
X149161500Y-57150000D03*
X141541500Y-54610000D03*
X149161500Y-59690000D03*
X141541500Y-52070000D03*
X149161500Y-62230000D03*
X141541500Y-49530000D03*
X149161500Y-64770000D03*
X141541500Y-46990000D03*
X149161500Y-67310000D03*
D14*
X141541500Y-44450000D03*
D15*
X153670000Y-45974000D03*
D16*
G36*
X154280001Y-68428000D02*
G01*
X150054549Y-68428000D01*
X150225019Y-68273414D01*
X150392537Y-68047420D01*
X150512746Y-67793087D01*
X150553404Y-67659039D01*
X150431415Y-67437000D01*
X149288500Y-67437000D01*
X149288500Y-67457000D01*
X149034500Y-67457000D01*
X149034500Y-67437000D01*
X147891585Y-67437000D01*
X147769596Y-67659039D01*
X147810254Y-67793087D01*
X147930463Y-68047420D01*
X148097981Y-68273414D01*
X148268451Y-68428000D01*
X142434549Y-68428000D01*
X142605019Y-68273414D01*
X142772537Y-68047420D01*
X142892746Y-67793087D01*
X142933404Y-67659039D01*
X142811415Y-67437000D01*
X141668500Y-67437000D01*
X141668500Y-67457000D01*
X141414500Y-67457000D01*
X141414500Y-67437000D01*
X141394500Y-67437000D01*
X141394500Y-67183000D01*
X141414500Y-67183000D01*
X141414500Y-64897000D01*
X141668500Y-64897000D01*
X141668500Y-67183000D01*
X142811415Y-67183000D01*
X142933404Y-66960961D01*
X142892746Y-66826913D01*
X142772537Y-66572580D01*
X142605019Y-66346586D01*
X142396631Y-66157615D01*
X142200518Y-66040000D01*
X142396631Y-65922385D01*
X142605019Y-65733414D01*
X142748521Y-65539819D01*
X142920412Y-65770269D01*
X143136645Y-65965178D01*
X143386748Y-66114157D01*
X143661109Y-66211481D01*
X143891000Y-66090814D01*
X143891000Y-64897000D01*
X144145000Y-64897000D01*
X144145000Y-66090814D01*
X144374891Y-66211481D01*
X144649252Y-66114157D01*
X144899355Y-65965178D01*
X145115588Y-65770269D01*
X145289641Y-65536920D01*
X145414825Y-65274099D01*
X145459476Y-65126890D01*
X145338155Y-64897000D01*
X144145000Y-64897000D01*
X143891000Y-64897000D01*
X141668500Y-64897000D01*
X141414500Y-64897000D01*
X141394500Y-64897000D01*
X141394500Y-64643000D01*
X141414500Y-64643000D01*
X141414500Y-64623000D01*
X141668500Y-64623000D01*
X141668500Y-64643000D01*
X143891000Y-64643000D01*
X143891000Y-62357000D01*
X144145000Y-62357000D01*
X144145000Y-64643000D01*
X145338155Y-64643000D01*
X145459476Y-64413110D01*
X145414825Y-64265901D01*
X145289641Y-64003080D01*
X145115588Y-63769731D01*
X144899355Y-63574822D01*
X144773745Y-63500000D01*
X144899355Y-63425178D01*
X145115588Y-63230269D01*
X145289641Y-62996920D01*
X145414825Y-62734099D01*
X145459476Y-62586890D01*
X145338155Y-62357000D01*
X144145000Y-62357000D01*
X143891000Y-62357000D01*
X143871000Y-62357000D01*
X143871000Y-62103000D01*
X143891000Y-62103000D01*
X143891000Y-62083000D01*
X144145000Y-62083000D01*
X144145000Y-62103000D01*
X145338155Y-62103000D01*
X145459476Y-61873110D01*
X145414825Y-61725901D01*
X145289641Y-61463080D01*
X145115588Y-61229731D01*
X144899355Y-61034822D01*
X144782466Y-60965195D01*
X144964632Y-60843475D01*
X145171475Y-60636632D01*
X145333990Y-60393411D01*
X145445932Y-60123158D01*
X145503000Y-59836260D01*
X145503000Y-59543740D01*
X145445932Y-59256842D01*
X145333990Y-58986589D01*
X145171475Y-58743368D01*
X144964632Y-58536525D01*
X144790240Y-58420000D01*
X144964632Y-58303475D01*
X145171475Y-58096632D01*
X145333990Y-57853411D01*
X145445932Y-57583158D01*
X145503000Y-57296260D01*
X145503000Y-57003740D01*
X145445932Y-56716842D01*
X145333990Y-56446589D01*
X145171475Y-56203368D01*
X144964632Y-55996525D01*
X144790240Y-55880000D01*
X144964632Y-55763475D01*
X145171475Y-55556632D01*
X145333990Y-55313411D01*
X145445932Y-55043158D01*
X145503000Y-54756260D01*
X145503000Y-54463740D01*
X145445932Y-54176842D01*
X145333990Y-53906589D01*
X145171475Y-53663368D01*
X144964632Y-53456525D01*
X144790240Y-53340000D01*
X144964632Y-53223475D01*
X145171475Y-53016632D01*
X145333990Y-52773411D01*
X145445932Y-52503158D01*
X145503000Y-52216260D01*
X145503000Y-51923740D01*
X145445932Y-51636842D01*
X145333990Y-51366589D01*
X145171475Y-51123368D01*
X144964632Y-50916525D01*
X144790240Y-50800000D01*
X144964632Y-50683475D01*
X145171475Y-50476632D01*
X145333990Y-50233411D01*
X145445932Y-49963158D01*
X145503000Y-49676260D01*
X145503000Y-49383740D01*
X145445932Y-49096842D01*
X145333990Y-48826589D01*
X145171475Y-48583368D01*
X145039620Y-48451513D01*
X145112180Y-48429502D01*
X145222494Y-48370537D01*
X145319185Y-48291185D01*
X145398537Y-48194494D01*
X145457502Y-48084180D01*
X145493812Y-47964482D01*
X145506072Y-47840000D01*
X145506072Y-46140000D01*
X145493812Y-46015518D01*
X145457502Y-45895820D01*
X145398537Y-45785506D01*
X145319185Y-45688815D01*
X145222494Y-45609463D01*
X145112180Y-45550498D01*
X144992482Y-45514188D01*
X144868000Y-45501928D01*
X143168000Y-45501928D01*
X143043518Y-45514188D01*
X142923820Y-45550498D01*
X142891731Y-45567650D01*
X142931002Y-45494180D01*
X142967312Y-45374482D01*
X142979572Y-45250000D01*
X142979572Y-44308665D01*
X147726500Y-44308665D01*
X147726500Y-44591335D01*
X147781647Y-44868574D01*
X147889820Y-45129727D01*
X148046863Y-45364759D01*
X148246741Y-45564637D01*
X148479259Y-45720000D01*
X148246741Y-45875363D01*
X148046863Y-46075241D01*
X147889820Y-46310273D01*
X147781647Y-46571426D01*
X147726500Y-46848665D01*
X147726500Y-47131335D01*
X147781647Y-47408574D01*
X147889820Y-47669727D01*
X148046863Y-47904759D01*
X148246741Y-48104637D01*
X148479259Y-48260000D01*
X148246741Y-48415363D01*
X148046863Y-48615241D01*
X147889820Y-48850273D01*
X147781647Y-49111426D01*
X147726500Y-49388665D01*
X147726500Y-49671335D01*
X147781647Y-49948574D01*
X147889820Y-50209727D01*
X148046863Y-50444759D01*
X148246741Y-50644637D01*
X148479259Y-50800000D01*
X148246741Y-50955363D01*
X148046863Y-51155241D01*
X147889820Y-51390273D01*
X147781647Y-51651426D01*
X147726500Y-51928665D01*
X147726500Y-52211335D01*
X147781647Y-52488574D01*
X147889820Y-52749727D01*
X148046863Y-52984759D01*
X148246741Y-53184637D01*
X148479259Y-53340000D01*
X148246741Y-53495363D01*
X148046863Y-53695241D01*
X147889820Y-53930273D01*
X147781647Y-54191426D01*
X147726500Y-54468665D01*
X147726500Y-54751335D01*
X147781647Y-55028574D01*
X147889820Y-55289727D01*
X148046863Y-55524759D01*
X148246741Y-55724637D01*
X148479259Y-55880000D01*
X148246741Y-56035363D01*
X148046863Y-56235241D01*
X147889820Y-56470273D01*
X147781647Y-56731426D01*
X147726500Y-57008665D01*
X147726500Y-57291335D01*
X147781647Y-57568574D01*
X147889820Y-57829727D01*
X148046863Y-58064759D01*
X148246741Y-58264637D01*
X148479259Y-58420000D01*
X148246741Y-58575363D01*
X148046863Y-58775241D01*
X147889820Y-59010273D01*
X147781647Y-59271426D01*
X147726500Y-59548665D01*
X147726500Y-59831335D01*
X147781647Y-60108574D01*
X147889820Y-60369727D01*
X148046863Y-60604759D01*
X148246741Y-60804637D01*
X148479259Y-60960000D01*
X148246741Y-61115363D01*
X148046863Y-61315241D01*
X147889820Y-61550273D01*
X147781647Y-61811426D01*
X147726500Y-62088665D01*
X147726500Y-62371335D01*
X147781647Y-62648574D01*
X147889820Y-62909727D01*
X148046863Y-63144759D01*
X148246741Y-63344637D01*
X148479259Y-63500000D01*
X148246741Y-63655363D01*
X148046863Y-63855241D01*
X147889820Y-64090273D01*
X147781647Y-64351426D01*
X147726500Y-64628665D01*
X147726500Y-64911335D01*
X147781647Y-65188574D01*
X147889820Y-65449727D01*
X148046863Y-65684759D01*
X148246741Y-65884637D01*
X148481773Y-66041680D01*
X148492365Y-66046067D01*
X148306369Y-66157615D01*
X148097981Y-66346586D01*
X147930463Y-66572580D01*
X147810254Y-66826913D01*
X147769596Y-66960961D01*
X147891585Y-67183000D01*
X149034500Y-67183000D01*
X149034500Y-67163000D01*
X149288500Y-67163000D01*
X149288500Y-67183000D01*
X150431415Y-67183000D01*
X150553404Y-66960961D01*
X150512746Y-66826913D01*
X150392537Y-66572580D01*
X150225019Y-66346586D01*
X150016631Y-66157615D01*
X149830635Y-66046067D01*
X149841227Y-66041680D01*
X150076259Y-65884637D01*
X150276137Y-65684759D01*
X150369682Y-65544758D01*
X150484525Y-65716632D01*
X150691368Y-65923475D01*
X150934589Y-66085990D01*
X151204842Y-66197932D01*
X151491740Y-66255000D01*
X151784260Y-66255000D01*
X152071158Y-66197932D01*
X152341411Y-66085990D01*
X152584632Y-65923475D01*
X152791475Y-65716632D01*
X152953990Y-65473411D01*
X153065932Y-65203158D01*
X153123000Y-64916260D01*
X153123000Y-64623740D01*
X153065932Y-64336842D01*
X152953990Y-64066589D01*
X152791475Y-63823368D01*
X152584632Y-63616525D01*
X152410240Y-63500000D01*
X152584632Y-63383475D01*
X152791475Y-63176632D01*
X152953990Y-62933411D01*
X153065932Y-62663158D01*
X153123000Y-62376260D01*
X153123000Y-62083740D01*
X153065932Y-61796842D01*
X152953990Y-61526589D01*
X152791475Y-61283368D01*
X152584632Y-61076525D01*
X152410240Y-60960000D01*
X152584632Y-60843475D01*
X152791475Y-60636632D01*
X152953990Y-60393411D01*
X153065932Y-60123158D01*
X153123000Y-59836260D01*
X153123000Y-59543740D01*
X153065932Y-59256842D01*
X152953990Y-58986589D01*
X152791475Y-58743368D01*
X152584632Y-58536525D01*
X152410240Y-58420000D01*
X152584632Y-58303475D01*
X152791475Y-58096632D01*
X152953990Y-57853411D01*
X153065932Y-57583158D01*
X153123000Y-57296260D01*
X153123000Y-57003740D01*
X153065932Y-56716842D01*
X152953990Y-56446589D01*
X152791475Y-56203368D01*
X152584632Y-55996525D01*
X152410240Y-55880000D01*
X152584632Y-55763475D01*
X152791475Y-55556632D01*
X152953990Y-55313411D01*
X153065932Y-55043158D01*
X153123000Y-54756260D01*
X153123000Y-54463740D01*
X153065932Y-54176842D01*
X152953990Y-53906589D01*
X152791475Y-53663368D01*
X152584632Y-53456525D01*
X152410240Y-53340000D01*
X152584632Y-53223475D01*
X152791475Y-53016632D01*
X152953990Y-52773411D01*
X153065932Y-52503158D01*
X153123000Y-52216260D01*
X153123000Y-51923740D01*
X153065932Y-51636842D01*
X152953990Y-51366589D01*
X152791475Y-51123368D01*
X152584632Y-50916525D01*
X152410240Y-50800000D01*
X152584632Y-50683475D01*
X152791475Y-50476632D01*
X152953990Y-50233411D01*
X153065932Y-49963158D01*
X153123000Y-49676260D01*
X153123000Y-49383740D01*
X153065932Y-49096842D01*
X152953990Y-48826589D01*
X152791475Y-48583368D01*
X152659620Y-48451513D01*
X152732180Y-48429502D01*
X152842494Y-48370537D01*
X152939185Y-48291185D01*
X153018537Y-48194494D01*
X153077502Y-48084180D01*
X153113812Y-47964482D01*
X153126072Y-47840000D01*
X153126072Y-46140000D01*
X153113812Y-46015518D01*
X153077502Y-45895820D01*
X153018537Y-45785506D01*
X152939185Y-45688815D01*
X152842494Y-45609463D01*
X152732180Y-45550498D01*
X152612482Y-45514188D01*
X152488000Y-45501928D01*
X150788000Y-45501928D01*
X150663518Y-45514188D01*
X150543820Y-45550498D01*
X150433506Y-45609463D01*
X150336815Y-45688815D01*
X150257463Y-45785506D01*
X150198498Y-45895820D01*
X150174809Y-45973913D01*
X150076259Y-45875363D01*
X149843741Y-45720000D01*
X150076259Y-45564637D01*
X150276137Y-45364759D01*
X150433180Y-45129727D01*
X150541353Y-44868574D01*
X150596500Y-44591335D01*
X150596500Y-44308665D01*
X150541353Y-44031426D01*
X150433180Y-43770273D01*
X150276137Y-43535241D01*
X150076259Y-43335363D01*
X149841227Y-43178320D01*
X149580074Y-43070147D01*
X149302835Y-43015000D01*
X149020165Y-43015000D01*
X148742926Y-43070147D01*
X148481773Y-43178320D01*
X148246741Y-43335363D01*
X148046863Y-43535241D01*
X147889820Y-43770273D01*
X147781647Y-44031426D01*
X147726500Y-44308665D01*
X142979572Y-44308665D01*
X142979572Y-43650000D01*
X142967312Y-43525518D01*
X142931002Y-43405820D01*
X142872037Y-43295506D01*
X142792685Y-43198815D01*
X142695994Y-43119463D01*
X142585680Y-43060498D01*
X142465982Y-43024188D01*
X142341500Y-43011928D01*
X140868000Y-43011928D01*
X140868000Y-42570000D01*
X154280000Y-42570000D01*
X154280001Y-68428000D01*
G37*
X154280001Y-68428000D02*
X150054549Y-68428000D01*
X150225019Y-68273414D01*
X150392537Y-68047420D01*
X150512746Y-67793087D01*
X150553404Y-67659039D01*
X150431415Y-67437000D01*
X149288500Y-67437000D01*
X149288500Y-67457000D01*
X149034500Y-67457000D01*
X149034500Y-67437000D01*
X147891585Y-67437000D01*
X147769596Y-67659039D01*
X147810254Y-67793087D01*
X147930463Y-68047420D01*
X148097981Y-68273414D01*
X148268451Y-68428000D01*
X142434549Y-68428000D01*
X142605019Y-68273414D01*
X142772537Y-68047420D01*
X142892746Y-67793087D01*
X142933404Y-67659039D01*
X142811415Y-67437000D01*
X141668500Y-67437000D01*
X141668500Y-67457000D01*
X141414500Y-67457000D01*
X141414500Y-67437000D01*
X141394500Y-67437000D01*
X141394500Y-67183000D01*
X141414500Y-67183000D01*
X141414500Y-64897000D01*
X141668500Y-64897000D01*
X141668500Y-67183000D01*
X142811415Y-67183000D01*
X142933404Y-66960961D01*
X142892746Y-66826913D01*
X142772537Y-66572580D01*
X142605019Y-66346586D01*
X142396631Y-66157615D01*
X142200518Y-66040000D01*
X142396631Y-65922385D01*
X142605019Y-65733414D01*
X142748521Y-65539819D01*
X142920412Y-65770269D01*
X143136645Y-65965178D01*
X143386748Y-66114157D01*
X143661109Y-66211481D01*
X143891000Y-66090814D01*
X143891000Y-64897000D01*
X144145000Y-64897000D01*
X144145000Y-66090814D01*
X144374891Y-66211481D01*
X144649252Y-66114157D01*
X144899355Y-65965178D01*
X145115588Y-65770269D01*
X145289641Y-65536920D01*
X145414825Y-65274099D01*
X145459476Y-65126890D01*
X145338155Y-64897000D01*
X144145000Y-64897000D01*
X143891000Y-64897000D01*
X141668500Y-64897000D01*
X141414500Y-64897000D01*
X141394500Y-64897000D01*
X141394500Y-64643000D01*
X141414500Y-64643000D01*
X141414500Y-64623000D01*
X141668500Y-64623000D01*
X141668500Y-64643000D01*
X143891000Y-64643000D01*
X143891000Y-62357000D01*
X144145000Y-62357000D01*
X144145000Y-64643000D01*
X145338155Y-64643000D01*
X145459476Y-64413110D01*
X145414825Y-64265901D01*
X145289641Y-64003080D01*
X145115588Y-63769731D01*
X144899355Y-63574822D01*
X144773745Y-63500000D01*
X144899355Y-63425178D01*
X145115588Y-63230269D01*
X145289641Y-62996920D01*
X145414825Y-62734099D01*
X145459476Y-62586890D01*
X145338155Y-62357000D01*
X144145000Y-62357000D01*
X143891000Y-62357000D01*
X143871000Y-62357000D01*
X143871000Y-62103000D01*
X143891000Y-62103000D01*
X143891000Y-62083000D01*
X144145000Y-62083000D01*
X144145000Y-62103000D01*
X145338155Y-62103000D01*
X145459476Y-61873110D01*
X145414825Y-61725901D01*
X145289641Y-61463080D01*
X145115588Y-61229731D01*
X144899355Y-61034822D01*
X144782466Y-60965195D01*
X144964632Y-60843475D01*
X145171475Y-60636632D01*
X145333990Y-60393411D01*
X145445932Y-60123158D01*
X145503000Y-59836260D01*
X145503000Y-59543740D01*
X145445932Y-59256842D01*
X145333990Y-58986589D01*
X145171475Y-58743368D01*
X144964632Y-58536525D01*
X144790240Y-58420000D01*
X144964632Y-58303475D01*
X145171475Y-58096632D01*
X145333990Y-57853411D01*
X145445932Y-57583158D01*
X145503000Y-57296260D01*
X145503000Y-57003740D01*
X145445932Y-56716842D01*
X145333990Y-56446589D01*
X145171475Y-56203368D01*
X144964632Y-55996525D01*
X144790240Y-55880000D01*
X144964632Y-55763475D01*
X145171475Y-55556632D01*
X145333990Y-55313411D01*
X145445932Y-55043158D01*
X145503000Y-54756260D01*
X145503000Y-54463740D01*
X145445932Y-54176842D01*
X145333990Y-53906589D01*
X145171475Y-53663368D01*
X144964632Y-53456525D01*
X144790240Y-53340000D01*
X144964632Y-53223475D01*
X145171475Y-53016632D01*
X145333990Y-52773411D01*
X145445932Y-52503158D01*
X145503000Y-52216260D01*
X145503000Y-51923740D01*
X145445932Y-51636842D01*
X145333990Y-51366589D01*
X145171475Y-51123368D01*
X144964632Y-50916525D01*
X144790240Y-50800000D01*
X144964632Y-50683475D01*
X145171475Y-50476632D01*
X145333990Y-50233411D01*
X145445932Y-49963158D01*
X145503000Y-49676260D01*
X145503000Y-49383740D01*
X145445932Y-49096842D01*
X145333990Y-48826589D01*
X145171475Y-48583368D01*
X145039620Y-48451513D01*
X145112180Y-48429502D01*
X145222494Y-48370537D01*
X145319185Y-48291185D01*
X145398537Y-48194494D01*
X145457502Y-48084180D01*
X145493812Y-47964482D01*
X145506072Y-47840000D01*
X145506072Y-46140000D01*
X145493812Y-46015518D01*
X145457502Y-45895820D01*
X145398537Y-45785506D01*
X145319185Y-45688815D01*
X145222494Y-45609463D01*
X145112180Y-45550498D01*
X144992482Y-45514188D01*
X144868000Y-45501928D01*
X143168000Y-45501928D01*
X143043518Y-45514188D01*
X142923820Y-45550498D01*
X142891731Y-45567650D01*
X142931002Y-45494180D01*
X142967312Y-45374482D01*
X142979572Y-45250000D01*
X142979572Y-44308665D01*
X147726500Y-44308665D01*
X147726500Y-44591335D01*
X147781647Y-44868574D01*
X147889820Y-45129727D01*
X148046863Y-45364759D01*
X148246741Y-45564637D01*
X148479259Y-45720000D01*
X148246741Y-45875363D01*
X148046863Y-46075241D01*
X147889820Y-46310273D01*
X147781647Y-46571426D01*
X147726500Y-46848665D01*
X147726500Y-47131335D01*
X147781647Y-47408574D01*
X147889820Y-47669727D01*
X148046863Y-47904759D01*
X148246741Y-48104637D01*
X148479259Y-48260000D01*
X148246741Y-48415363D01*
X148046863Y-48615241D01*
X147889820Y-48850273D01*
X147781647Y-49111426D01*
X147726500Y-49388665D01*
X147726500Y-49671335D01*
X147781647Y-49948574D01*
X147889820Y-50209727D01*
X148046863Y-50444759D01*
X148246741Y-50644637D01*
X148479259Y-50800000D01*
X148246741Y-50955363D01*
X148046863Y-51155241D01*
X147889820Y-51390273D01*
X147781647Y-51651426D01*
X147726500Y-51928665D01*
X147726500Y-52211335D01*
X147781647Y-52488574D01*
X147889820Y-52749727D01*
X148046863Y-52984759D01*
X148246741Y-53184637D01*
X148479259Y-53340000D01*
X148246741Y-53495363D01*
X148046863Y-53695241D01*
X147889820Y-53930273D01*
X147781647Y-54191426D01*
X147726500Y-54468665D01*
X147726500Y-54751335D01*
X147781647Y-55028574D01*
X147889820Y-55289727D01*
X148046863Y-55524759D01*
X148246741Y-55724637D01*
X148479259Y-55880000D01*
X148246741Y-56035363D01*
X148046863Y-56235241D01*
X147889820Y-56470273D01*
X147781647Y-56731426D01*
X147726500Y-57008665D01*
X147726500Y-57291335D01*
X147781647Y-57568574D01*
X147889820Y-57829727D01*
X148046863Y-58064759D01*
X148246741Y-58264637D01*
X148479259Y-58420000D01*
X148246741Y-58575363D01*
X148046863Y-58775241D01*
X147889820Y-59010273D01*
X147781647Y-59271426D01*
X147726500Y-59548665D01*
X147726500Y-59831335D01*
X147781647Y-60108574D01*
X147889820Y-60369727D01*
X148046863Y-60604759D01*
X148246741Y-60804637D01*
X148479259Y-60960000D01*
X148246741Y-61115363D01*
X148046863Y-61315241D01*
X147889820Y-61550273D01*
X147781647Y-61811426D01*
X147726500Y-62088665D01*
X147726500Y-62371335D01*
X147781647Y-62648574D01*
X147889820Y-62909727D01*
X148046863Y-63144759D01*
X148246741Y-63344637D01*
X148479259Y-63500000D01*
X148246741Y-63655363D01*
X148046863Y-63855241D01*
X147889820Y-64090273D01*
X147781647Y-64351426D01*
X147726500Y-64628665D01*
X147726500Y-64911335D01*
X147781647Y-65188574D01*
X147889820Y-65449727D01*
X148046863Y-65684759D01*
X148246741Y-65884637D01*
X148481773Y-66041680D01*
X148492365Y-66046067D01*
X148306369Y-66157615D01*
X148097981Y-66346586D01*
X147930463Y-66572580D01*
X147810254Y-66826913D01*
X147769596Y-66960961D01*
X147891585Y-67183000D01*
X149034500Y-67183000D01*
X149034500Y-67163000D01*
X149288500Y-67163000D01*
X149288500Y-67183000D01*
X150431415Y-67183000D01*
X150553404Y-66960961D01*
X150512746Y-66826913D01*
X150392537Y-66572580D01*
X150225019Y-66346586D01*
X150016631Y-66157615D01*
X149830635Y-66046067D01*
X149841227Y-66041680D01*
X150076259Y-65884637D01*
X150276137Y-65684759D01*
X150369682Y-65544758D01*
X150484525Y-65716632D01*
X150691368Y-65923475D01*
X150934589Y-66085990D01*
X151204842Y-66197932D01*
X151491740Y-66255000D01*
X151784260Y-66255000D01*
X152071158Y-66197932D01*
X152341411Y-66085990D01*
X152584632Y-65923475D01*
X152791475Y-65716632D01*
X152953990Y-65473411D01*
X153065932Y-65203158D01*
X153123000Y-64916260D01*
X153123000Y-64623740D01*
X153065932Y-64336842D01*
X152953990Y-64066589D01*
X152791475Y-63823368D01*
X152584632Y-63616525D01*
X152410240Y-63500000D01*
X152584632Y-63383475D01*
X152791475Y-63176632D01*
X152953990Y-62933411D01*
X153065932Y-62663158D01*
X153123000Y-62376260D01*
X153123000Y-62083740D01*
X153065932Y-61796842D01*
X152953990Y-61526589D01*
X152791475Y-61283368D01*
X152584632Y-61076525D01*
X152410240Y-60960000D01*
X152584632Y-60843475D01*
X152791475Y-60636632D01*
X152953990Y-60393411D01*
X153065932Y-60123158D01*
X153123000Y-59836260D01*
X153123000Y-59543740D01*
X153065932Y-59256842D01*
X152953990Y-58986589D01*
X152791475Y-58743368D01*
X152584632Y-58536525D01*
X152410240Y-58420000D01*
X152584632Y-58303475D01*
X152791475Y-58096632D01*
X152953990Y-57853411D01*
X153065932Y-57583158D01*
X153123000Y-57296260D01*
X153123000Y-57003740D01*
X153065932Y-56716842D01*
X152953990Y-56446589D01*
X152791475Y-56203368D01*
X152584632Y-55996525D01*
X152410240Y-55880000D01*
X152584632Y-55763475D01*
X152791475Y-55556632D01*
X152953990Y-55313411D01*
X153065932Y-55043158D01*
X153123000Y-54756260D01*
X153123000Y-54463740D01*
X153065932Y-54176842D01*
X152953990Y-53906589D01*
X152791475Y-53663368D01*
X152584632Y-53456525D01*
X152410240Y-53340000D01*
X152584632Y-53223475D01*
X152791475Y-53016632D01*
X152953990Y-52773411D01*
X153065932Y-52503158D01*
X153123000Y-52216260D01*
X153123000Y-51923740D01*
X153065932Y-51636842D01*
X152953990Y-51366589D01*
X152791475Y-51123368D01*
X152584632Y-50916525D01*
X152410240Y-50800000D01*
X152584632Y-50683475D01*
X152791475Y-50476632D01*
X152953990Y-50233411D01*
X153065932Y-49963158D01*
X153123000Y-49676260D01*
X153123000Y-49383740D01*
X153065932Y-49096842D01*
X152953990Y-48826589D01*
X152791475Y-48583368D01*
X152659620Y-48451513D01*
X152732180Y-48429502D01*
X152842494Y-48370537D01*
X152939185Y-48291185D01*
X153018537Y-48194494D01*
X153077502Y-48084180D01*
X153113812Y-47964482D01*
X153126072Y-47840000D01*
X153126072Y-46140000D01*
X153113812Y-46015518D01*
X153077502Y-45895820D01*
X153018537Y-45785506D01*
X152939185Y-45688815D01*
X152842494Y-45609463D01*
X152732180Y-45550498D01*
X152612482Y-45514188D01*
X152488000Y-45501928D01*
X150788000Y-45501928D01*
X150663518Y-45514188D01*
X150543820Y-45550498D01*
X150433506Y-45609463D01*
X150336815Y-45688815D01*
X150257463Y-45785506D01*
X150198498Y-45895820D01*
X150174809Y-45973913D01*
X150076259Y-45875363D01*
X149843741Y-45720000D01*
X150076259Y-45564637D01*
X150276137Y-45364759D01*
X150433180Y-45129727D01*
X150541353Y-44868574D01*
X150596500Y-44591335D01*
X150596500Y-44308665D01*
X150541353Y-44031426D01*
X150433180Y-43770273D01*
X150276137Y-43535241D01*
X150076259Y-43335363D01*
X149841227Y-43178320D01*
X149580074Y-43070147D01*
X149302835Y-43015000D01*
X149020165Y-43015000D01*
X148742926Y-43070147D01*
X148481773Y-43178320D01*
X148246741Y-43335363D01*
X148046863Y-43535241D01*
X147889820Y-43770273D01*
X147781647Y-44031426D01*
X147726500Y-44308665D01*
X142979572Y-44308665D01*
X142979572Y-43650000D01*
X142967312Y-43525518D01*
X142931002Y-43405820D01*
X142872037Y-43295506D01*
X142792685Y-43198815D01*
X142695994Y-43119463D01*
X142585680Y-43060498D01*
X142465982Y-43024188D01*
X142341500Y-43011928D01*
X140868000Y-43011928D01*
X140868000Y-42570000D01*
X154280000Y-42570000D01*
X154280001Y-68428000D01*
M02*
