G04 #@! TF.GenerationSoftware,KiCad,Pcbnew,(5.1.5)-3*
G04 #@! TF.CreationDate,2020-09-11T10:56:42+02:00*
G04 #@! TF.ProjectId,mmu_16v8,6d6d755f-3136-4763-982e-6b696361645f,rev?*
G04 #@! TF.SameCoordinates,Original*
G04 #@! TF.FileFunction,Copper,L1,Top*
G04 #@! TF.FilePolarity,Positive*
%FSLAX46Y46*%
G04 Gerber Fmt 4.6, Leading zero omitted, Abs format (unit mm)*
G04 Created by KiCad (PCBNEW (5.1.5)-3) date 2020-09-11 10:56:42*
%MOMM*%
%LPD*%
G04 APERTURE LIST*
%ADD10C,0.127000*%
%ADD11C,0.050000*%
%ADD12O,1.700000X1.700000*%
%ADD13R,1.700000X1.700000*%
%ADD14O,1.600000X1.600000*%
%ADD15R,1.600000X1.600000*%
%ADD16C,0.100000*%
%ADD17C,0.800000*%
%ADD18C,0.250000*%
%ADD19C,0.508000*%
G04 APERTURE END LIST*
D10*
X153869571Y-62937571D02*
X153869571Y-62683571D01*
X154268714Y-62574714D02*
X154268714Y-62937571D01*
X153506714Y-62937571D01*
X153506714Y-62574714D01*
X154268714Y-62248142D02*
X153506714Y-62248142D01*
X154051000Y-61994142D01*
X153506714Y-61740142D01*
X154268714Y-61740142D01*
X154268714Y-61377285D02*
X153506714Y-61377285D01*
X154051000Y-61123285D01*
X153506714Y-60869285D01*
X154268714Y-60869285D01*
X153506714Y-60506428D02*
X154123571Y-60506428D01*
X154196142Y-60470142D01*
X154232428Y-60433857D01*
X154268714Y-60361285D01*
X154268714Y-60216142D01*
X154232428Y-60143571D01*
X154196142Y-60107285D01*
X154123571Y-60071000D01*
X153506714Y-60071000D01*
X153978428Y-59127571D02*
X153978428Y-58547000D01*
X154268714Y-57603571D02*
X153506714Y-57603571D01*
X154051000Y-57349571D01*
X153506714Y-57095571D01*
X154268714Y-57095571D01*
X154268714Y-56732714D02*
X153760714Y-56732714D01*
X153506714Y-56732714D02*
X153543000Y-56769000D01*
X153579285Y-56732714D01*
X153543000Y-56696428D01*
X153506714Y-56732714D01*
X153579285Y-56732714D01*
X154268714Y-56369857D02*
X153506714Y-56369857D01*
X153978428Y-56297285D02*
X154268714Y-56079571D01*
X153760714Y-56079571D02*
X154051000Y-56369857D01*
X153760714Y-55426428D02*
X154268714Y-55426428D01*
X153760714Y-55753000D02*
X154159857Y-55753000D01*
X154232428Y-55716714D01*
X154268714Y-55644142D01*
X154268714Y-55535285D01*
X154232428Y-55462714D01*
X154196142Y-55426428D01*
X154268714Y-54954714D02*
X154232428Y-55027285D01*
X154159857Y-55063571D01*
X153506714Y-55063571D01*
X154232428Y-54700714D02*
X154268714Y-54628142D01*
X154268714Y-54483000D01*
X154232428Y-54410428D01*
X154159857Y-54374142D01*
X154123571Y-54374142D01*
X154051000Y-54410428D01*
X154014714Y-54483000D01*
X154014714Y-54591857D01*
X153978428Y-54664428D01*
X153905857Y-54700714D01*
X153869571Y-54700714D01*
X153797000Y-54664428D01*
X153760714Y-54591857D01*
X153760714Y-54483000D01*
X153797000Y-54410428D01*
X154268714Y-54047571D02*
X153506714Y-54047571D01*
X153978428Y-53975000D02*
X154268714Y-53757285D01*
X153760714Y-53757285D02*
X154051000Y-54047571D01*
X154268714Y-53430714D02*
X153760714Y-53430714D01*
X153506714Y-53430714D02*
X153543000Y-53467000D01*
X153579285Y-53430714D01*
X153543000Y-53394428D01*
X153506714Y-53430714D01*
X153579285Y-53430714D01*
X154268714Y-52124428D02*
X154268714Y-52487285D01*
X153506714Y-52487285D01*
X154268714Y-51543857D02*
X153869571Y-51543857D01*
X153797000Y-51580142D01*
X153760714Y-51652714D01*
X153760714Y-51797857D01*
X153797000Y-51870428D01*
X154232428Y-51543857D02*
X154268714Y-51616428D01*
X154268714Y-51797857D01*
X154232428Y-51870428D01*
X154159857Y-51906714D01*
X154087285Y-51906714D01*
X154014714Y-51870428D01*
X153978428Y-51797857D01*
X153978428Y-51616428D01*
X153942142Y-51543857D01*
X154268714Y-51181000D02*
X153506714Y-51181000D01*
X153797000Y-51181000D02*
X153760714Y-51108428D01*
X153760714Y-50963285D01*
X153797000Y-50890714D01*
X153833285Y-50854428D01*
X153905857Y-50818142D01*
X154123571Y-50818142D01*
X154196142Y-50854428D01*
X154232428Y-50890714D01*
X154268714Y-50963285D01*
X154268714Y-51108428D01*
X154232428Y-51181000D01*
D11*
X140208000Y-69088000D02*
X140208000Y-41910000D01*
X154940000Y-69088000D02*
X140208000Y-69088000D01*
X154940000Y-41910000D02*
X154940000Y-69088000D01*
X140208000Y-41910000D02*
X154940000Y-41910000D01*
D12*
X151638000Y-64770000D03*
X151638000Y-62230000D03*
X151638000Y-59690000D03*
X151638000Y-57150000D03*
X151638000Y-54610000D03*
X151638000Y-52070000D03*
X151638000Y-49530000D03*
D13*
X151638000Y-46990000D03*
D12*
X144018000Y-64770000D03*
X144018000Y-62230000D03*
X144018000Y-59690000D03*
X144018000Y-57150000D03*
X144018000Y-54610000D03*
X144018000Y-52070000D03*
X144018000Y-49530000D03*
D13*
X144018000Y-46990000D03*
D14*
X149161500Y-44450000D03*
X141541500Y-67310000D03*
X149161500Y-46990000D03*
X141541500Y-64770000D03*
X149161500Y-49530000D03*
X141541500Y-62230000D03*
X149161500Y-52070000D03*
X141541500Y-59690000D03*
X149161500Y-54610000D03*
X141541500Y-57150000D03*
X149161500Y-57150000D03*
X141541500Y-54610000D03*
X149161500Y-59690000D03*
X141541500Y-52070000D03*
X149161500Y-62230000D03*
X141541500Y-49530000D03*
X149161500Y-64770000D03*
X141541500Y-46990000D03*
X149161500Y-67310000D03*
D15*
X141541500Y-44450000D03*
G04 #@! TA.AperFunction,SMDPad,CuDef*
D16*
G36*
X154028505Y-43751204D02*
G01*
X154052773Y-43754804D01*
X154076572Y-43760765D01*
X154099671Y-43769030D01*
X154121850Y-43779520D01*
X154142893Y-43792132D01*
X154162599Y-43806747D01*
X154180777Y-43823223D01*
X154197253Y-43841401D01*
X154211868Y-43861107D01*
X154224480Y-43882150D01*
X154234970Y-43904329D01*
X154243235Y-43927428D01*
X154249196Y-43951227D01*
X154252796Y-43975495D01*
X154254000Y-43999999D01*
X154254000Y-44900001D01*
X154252796Y-44924505D01*
X154249196Y-44948773D01*
X154243235Y-44972572D01*
X154234970Y-44995671D01*
X154224480Y-45017850D01*
X154211868Y-45038893D01*
X154197253Y-45058599D01*
X154180777Y-45076777D01*
X154162599Y-45093253D01*
X154142893Y-45107868D01*
X154121850Y-45120480D01*
X154099671Y-45130970D01*
X154076572Y-45139235D01*
X154052773Y-45145196D01*
X154028505Y-45148796D01*
X154004001Y-45150000D01*
X153353999Y-45150000D01*
X153329495Y-45148796D01*
X153305227Y-45145196D01*
X153281428Y-45139235D01*
X153258329Y-45130970D01*
X153236150Y-45120480D01*
X153215107Y-45107868D01*
X153195401Y-45093253D01*
X153177223Y-45076777D01*
X153160747Y-45058599D01*
X153146132Y-45038893D01*
X153133520Y-45017850D01*
X153123030Y-44995671D01*
X153114765Y-44972572D01*
X153108804Y-44948773D01*
X153105204Y-44924505D01*
X153104000Y-44900001D01*
X153104000Y-43999999D01*
X153105204Y-43975495D01*
X153108804Y-43951227D01*
X153114765Y-43927428D01*
X153123030Y-43904329D01*
X153133520Y-43882150D01*
X153146132Y-43861107D01*
X153160747Y-43841401D01*
X153177223Y-43823223D01*
X153195401Y-43806747D01*
X153215107Y-43792132D01*
X153236150Y-43779520D01*
X153258329Y-43769030D01*
X153281428Y-43760765D01*
X153305227Y-43754804D01*
X153329495Y-43751204D01*
X153353999Y-43750000D01*
X154004001Y-43750000D01*
X154028505Y-43751204D01*
G37*
G04 #@! TD.AperFunction*
G04 #@! TA.AperFunction,SMDPad,CuDef*
G36*
X151978505Y-43751204D02*
G01*
X152002773Y-43754804D01*
X152026572Y-43760765D01*
X152049671Y-43769030D01*
X152071850Y-43779520D01*
X152092893Y-43792132D01*
X152112599Y-43806747D01*
X152130777Y-43823223D01*
X152147253Y-43841401D01*
X152161868Y-43861107D01*
X152174480Y-43882150D01*
X152184970Y-43904329D01*
X152193235Y-43927428D01*
X152199196Y-43951227D01*
X152202796Y-43975495D01*
X152204000Y-43999999D01*
X152204000Y-44900001D01*
X152202796Y-44924505D01*
X152199196Y-44948773D01*
X152193235Y-44972572D01*
X152184970Y-44995671D01*
X152174480Y-45017850D01*
X152161868Y-45038893D01*
X152147253Y-45058599D01*
X152130777Y-45076777D01*
X152112599Y-45093253D01*
X152092893Y-45107868D01*
X152071850Y-45120480D01*
X152049671Y-45130970D01*
X152026572Y-45139235D01*
X152002773Y-45145196D01*
X151978505Y-45148796D01*
X151954001Y-45150000D01*
X151303999Y-45150000D01*
X151279495Y-45148796D01*
X151255227Y-45145196D01*
X151231428Y-45139235D01*
X151208329Y-45130970D01*
X151186150Y-45120480D01*
X151165107Y-45107868D01*
X151145401Y-45093253D01*
X151127223Y-45076777D01*
X151110747Y-45058599D01*
X151096132Y-45038893D01*
X151083520Y-45017850D01*
X151073030Y-44995671D01*
X151064765Y-44972572D01*
X151058804Y-44948773D01*
X151055204Y-44924505D01*
X151054000Y-44900001D01*
X151054000Y-43999999D01*
X151055204Y-43975495D01*
X151058804Y-43951227D01*
X151064765Y-43927428D01*
X151073030Y-43904329D01*
X151083520Y-43882150D01*
X151096132Y-43861107D01*
X151110747Y-43841401D01*
X151127223Y-43823223D01*
X151145401Y-43806747D01*
X151165107Y-43792132D01*
X151186150Y-43779520D01*
X151208329Y-43769030D01*
X151231428Y-43760765D01*
X151255227Y-43754804D01*
X151279495Y-43751204D01*
X151303999Y-43750000D01*
X151954001Y-43750000D01*
X151978505Y-43751204D01*
G37*
G04 #@! TD.AperFunction*
D17*
X153670000Y-45974000D03*
D18*
X141605000Y-59690000D02*
X144780000Y-59690000D01*
X141605000Y-57150000D02*
X144780000Y-57150000D01*
X141605000Y-54610000D02*
X144780000Y-54610000D01*
X141605000Y-52070000D02*
X144780000Y-52070000D01*
X142736370Y-49530000D02*
X144780000Y-49530000D01*
X141605000Y-49530000D02*
X142736370Y-49530000D01*
X141605000Y-46990000D02*
X144780000Y-46990000D01*
X149225000Y-62230000D02*
X152400000Y-62230000D01*
X149225000Y-59690000D02*
X152400000Y-59690000D01*
X149225000Y-57150000D02*
X152400000Y-57150000D01*
X149225000Y-54610000D02*
X152400000Y-54610000D01*
X152400000Y-49530000D02*
X149225000Y-49530000D01*
X146685000Y-44450000D02*
X149225000Y-46990000D01*
X141605000Y-44450000D02*
X146685000Y-44450000D01*
D19*
X153679000Y-45965000D02*
X153679000Y-44450000D01*
X149225000Y-44450000D02*
X151629000Y-44450000D01*
X151629000Y-46981000D02*
X151638000Y-46990000D01*
X151629000Y-44450000D02*
X151629000Y-46981000D01*
D18*
X150788001Y-63920001D02*
X151638000Y-64770000D01*
X150462999Y-63594999D02*
X150788001Y-63920001D01*
X142906499Y-63594999D02*
X150462999Y-63594999D01*
X141541500Y-62230000D02*
X142906499Y-63594999D01*
X151197919Y-52070000D02*
X149225000Y-52070000D01*
X152400000Y-52070000D02*
X151197919Y-52070000D01*
M02*
