M48
INCH
T1C0.0157
T2C0.0315
T3C0.0394
%
G90
G05
T1
X6.05Y-1.81
T2
X5.5725Y-1.75
X5.5725Y-1.85
X5.5725Y-1.95
X5.5725Y-2.05
X5.5725Y-2.15
X5.5725Y-2.25
X5.5725Y-2.35
X5.5725Y-2.45
X5.5725Y-2.55
X5.5725Y-2.65
X5.8725Y-1.75
X5.8725Y-1.85
X5.8725Y-1.95
X5.8725Y-2.05
X5.8725Y-2.15
X5.8725Y-2.25
X5.8725Y-2.35
X5.8725Y-2.45
X5.8725Y-2.55
X5.8725Y-2.65
T3
X5.67Y-1.85
X5.67Y-1.95
X5.67Y-2.05
X5.67Y-2.15
X5.67Y-2.25
X5.67Y-2.35
X5.67Y-2.45
X5.67Y-2.55
X5.97Y-1.85
X5.97Y-1.95
X5.97Y-2.05
X5.97Y-2.15
X5.97Y-2.25
X5.97Y-2.35
X5.97Y-2.45
X5.97Y-2.55
T0
M30
